<svg xmlns="http://www.w3.org/2000/svg" viewBox="0 0 256 256" fill="none">
  <defs>
    <linearGradient id="py-blue" x1="0" y1="0" x2="1" y2="1">
      <stop offset="0%" stop-color="#5A9FD4"/>
      <stop offset="100%" stop-color="#306998"/>
    </linearGradient>
    <linearGradient id="py-yellow" x1="0" y1="0" x2="1" y2="1">
      <stop offset="0%" stop-color="#FFE873"/>
      <stop offset="100%" stop-color="#FFC331"/>
    </linearGradient>
  </defs>
  <path fill="url(#py-blue)" d="M126.916 0c-64.708 0-60.67 28.067-60.67 28.067l.074 29.076h61.75v8.73H41.752S.458 61.181.458 126.512c0 65.33 36.04 63.013 36.04 63.013h21.564v-30.298s-1.161-36.04 35.46-36.04h61.247s34.314.554 34.314-33.168V33.762S194.313 0 126.916 0zM92.88 19.55c6.144 0 11.117 4.973 11.117 11.117 0 6.143-4.973 11.116-11.117 11.116-6.144 0-11.117-4.973-11.117-11.116 0-6.144 4.973-11.117 11.117-11.117z"/>
  <path fill="url(#py-yellow)" d="M128.757 255.5c64.708 0 60.67-28.067 60.67-28.067l-.074-29.076h-61.75v-8.73h86.318s41.294 4.692 41.294-60.639c0-65.33-36.04-63.013-36.04-63.013h-21.564v30.298s1.161 36.04-35.46 36.04H100.904s-34.314-.554-34.314 33.168v55.257S61.36 255.5 128.757 255.5zm34.036-19.55c-6.144 0-11.117-4.973-11.117-11.117 0-6.143 4.973-11.116 11.117-11.116 6.144 0 11.117 4.973 11.117 11.116 0 6.144-4.973 11.117-11.117 11.117z"/>
</svg>
