<svg xmlns="http://www.w3.org/2000/svg" viewBox="0 0 100 100" width="100" height="100">
  <rect x="15" y="15" width="22" height="22" rx="3" fill="none" stroke="#ffffff" stroke-width="2.5" stroke-opacity="1"></rect>
  <rect x="19" y="19" width="14" height="14" rx="2" fill="#ffffff"></rect>
  <rect x="41" y="15" width="22" height="22" rx="3" fill="none" stroke="#ffffff" stroke-width="2.5" stroke-opacity="1"></rect>
  <rect x="45" y="19" width="14" height="14" rx="2" fill="#ffffff"></rect>
  <rect x="67" y="15" width="22" height="22" rx="3" fill="none" stroke="#ffffff" stroke-width="2.5" stroke-opacity="1"></rect>
  <rect x="71" y="19" width="14" height="14" rx="2" fill="#ffffff"></rect>
  <rect x="15" y="41" width="22" height="22" rx="3" fill="none" stroke="#ffffff" stroke-width="2.5" stroke-opacity="1"></rect>
  <rect x="19" y="45" width="14" height="14" rx="2" fill="#ffffff"></rect>
  <rect x="41" y="41" width="22" height="22" rx="3" fill="none" stroke="#ffffff" stroke-width="2.5" stroke-opacity="0.45"></rect>
  <rect x="67" y="41" width="22" height="22" rx="3" fill="none" stroke="#ffffff" stroke-width="2.5" stroke-opacity="0.45"></rect>
  <rect x="15" y="67" width="22" height="22" rx="3" fill="none" stroke="#ffffff" stroke-width="2.5" stroke-opacity="0.45"></rect>
  <rect x="41" y="67" width="22" height="22" rx="3" fill="none" stroke="#ffffff" stroke-width="2.5" stroke-opacity="0.45"></rect>
  <rect x="67" y="67" width="22" height="22" rx="3" fill="none" stroke="#ffffff" stroke-width="2.5" stroke-opacity="0.45"></rect>
</svg>